<svg xmlns="http://www.w3.org/2000/svg" width="1200" height="630" viewBox="0 0 1200 630">
  <defs>
    <linearGradient id="bg" x1="0%" y1="0%" x2="100%" y2="100%">
      <stop offset="0%" style="stop-color:#0f172a"/>
      <stop offset="100%" style="stop-color:#1e3a8a"/>
    </linearGradient>
  </defs>
  <rect width="1200" height="630" fill="url(#bg)"/>
  <rect x="0" y="0" width="1200" height="6" fill="#23aee1"/>
  <rect x="80" y="80" width="60" height="60" rx="12" fill="#23aee1"/>
  <rect x="102" y="92" width="16" height="36" rx="3" fill="white"/>
  <rect x="92" y="102" width="36" height="16" rx="3" fill="white"/>
  <text x="160" y="122" font-family="Inter, Arial, sans-serif" font-size="28" font-weight="700" fill="#23aee1">calculateur-3eme-pilier.ch</text>
  <text x="80" y="270" font-family="Inter, Arial, sans-serif" font-size="72" font-weight="800" fill="white">Calculateur 3ème Pilier</text>
  <text x="80" y="345" font-family="Inter, Arial, sans-serif" font-size="42" font-weight="600" fill="#23aee1">Suisse 2026</text>
  <text x="80" y="430" font-family="Inter, Arial, sans-serif" font-size="30" fill="#94a3b8">Économisez jusqu'à 2'600 CHF d'impôts par an</text>
  <text x="80" y="480" font-family="Inter, Arial, sans-serif" font-size="26" fill="#64748b">Simulation gratuite · 15 cantons · Plafond 7'258 CHF</text>
  <rect x="80" y="530" width="320" height="56" rx="12" fill="#23aee1"/>
  <text x="240" y="564" font-family="Inter, Arial, sans-serif" font-size="24" font-weight="700" fill="white" text-anchor="middle">Simuler gratuitement →</text>
  <rect x="900" y="150" width="220" height="300" rx="20" fill="#1e3a8a" opacity="0.6" stroke="#23aee1" stroke-width="2"/>
  <text x="1010" y="210" font-family="Inter, Arial, sans-serif" font-size="16" fill="#94a3b8" text-anchor="middle">Économie annuelle</text>
  <text x="1010" y="265" font-family="Inter, Arial, sans-serif" font-size="44" font-weight="800" fill="#23aee1" text-anchor="middle">2'147</text>
  <text x="1010" y="295" font-family="Inter, Arial, sans-serif" font-size="20" fill="white" text-anchor="middle">CHF</text>
  <line x1="920" y1="320" x2="1100" y2="320" stroke="#2d4a9a" stroke-width="1"/>
  <text x="1010" y="360" font-family="Inter, Arial, sans-serif" font-size="16" fill="#94a3b8" text-anchor="middle">Capital à 65 ans</text>
  <text x="1010" y="415" font-family="Inter, Arial, sans-serif" font-size="38" font-weight="800" fill="white" text-anchor="middle">345'310</text>
  <text x="1010" y="440" font-family="Inter, Arial, sans-serif" font-size="18" fill="#94a3b8" text-anchor="middle">CHF</text>
</svg>
